<svg width="426" height="828" viewBox="0 0 426 828" fill="none" xmlns="http://www.w3.org/2000/svg">
<g filter="url(#filter0_dd_352_42139)">
<g clip-path="url(#clip0_352_42139)">
<path d="M38 15H388V765H38V15Z" fill="#DBEAFE"/>
<path d="M294 548C294 574.51 272.51 596 246 596C219.49 596 198 574.51 198 548C198 521.49 219.49 500 246 500C272.51 500 294 521.49 294 548Z" fill="white"/>
<path fill-rule="evenodd" clip-rule="evenodd" d="M246 593C270.853 593 291 572.853 291 548C291 523.147 270.853 503 246 503C221.147 503 201 523.147 201 548C201 572.853 221.147 593 246 593ZM246 596C272.51 596 294 574.51 294 548C294 521.49 272.51 500 246 500C219.49 500 198 521.49 198 548C198 574.51 219.49 596 246 596Z" fill="#BFDBFE"/>
<path d="M422 548C422 574.51 400.51 596 374 596C347.49 596 326 574.51 326 548C326 521.49 347.49 500 374 500C400.51 500 422 521.49 422 548Z" fill="#BFDBFE"/>
<path fill-rule="evenodd" clip-rule="evenodd" d="M374 593C398.853 593 419 572.853 419 548C419 523.147 398.853 503 374 503C349.147 503 329 523.147 329 548C329 572.853 349.147 593 374 593ZM374 596C400.51 596 422 574.51 422 548C422 521.49 400.51 500 374 500C347.49 500 326 521.49 326 548C326 574.51 347.49 596 374 596Z" fill="white"/>
<path d="M166 548C166 574.51 144.51 596 118 596C91.4903 596 70 574.51 70 548C70 521.49 91.4903 500 118 500C144.51 500 166 521.49 166 548Z" fill="#FACC15"/>
<path fill-rule="evenodd" clip-rule="evenodd" d="M118 593C142.853 593 163 572.853 163 548C163 523.147 142.853 503 118 503C93.1472 503 73 523.147 73 548C73 572.853 93.1472 593 118 593ZM118 596C144.51 596 166 574.51 166 548C166 521.49 144.51 500 118 500C91.4903 500 70 521.49 70 548C70 574.51 91.4903 596 118 596Z" fill="white"/>
<path d="M70 468C70 463.582 73.5817 460 78 460H148C152.418 460 156 463.582 156 468C156 472.418 152.418 476 148 476H78C73.5817 476 70 472.418 70 468Z" fill="#BFDBFE"/>
<path d="M172 468C172 463.582 175.582 460 180 460H212C216.418 460 220 463.582 220 468C220 472.418 216.418 476 212 476H180C175.582 476 172 472.418 172 468Z" fill="#BFDBFE"/>
<path fill-rule="evenodd" clip-rule="evenodd" d="M312.5 302.561C312.559 296.857 317.09 292 322.914 292C326.489 292 329.118 293.769 330.796 295.436C331.263 295.899 331.664 296.362 332 296.789C332.336 296.362 332.737 295.899 333.204 295.436C334.882 293.769 337.511 292 341.086 292C346.91 292 351.441 296.857 351.5 302.561L351.5 302.561C351.611 313.685 342.672 321.382 333.687 327.481C333.19 327.819 332.602 328 332 328C331.398 328 330.81 327.819 330.312 327.481C321.327 321.382 312.388 313.685 312.5 302.561L312.5 302.561ZM333.34 300.175C333.085 300.681 332.567 301 332 301C331.433 301 330.915 300.681 330.66 300.175C330.66 300.174 330.659 300.173 330.658 300.171C330.657 300.167 330.654 300.162 330.649 300.154C330.647 300.149 330.644 300.144 330.642 300.139C330.625 300.107 330.597 300.056 330.557 299.987C330.479 299.85 330.356 299.646 330.189 299.397C329.854 298.896 329.351 298.228 328.682 297.564C327.339 296.231 325.425 295 322.914 295C318.845 295 315.543 298.419 315.5 302.591M333.34 300.175C333.34 300.174 333.341 300.173 333.342 300.171C333.344 300.166 333.35 300.155 333.358 300.139C333.375 300.107 333.403 300.056 333.443 299.987C333.521 299.85 333.644 299.646 333.811 299.397C334.146 298.896 334.649 298.228 335.318 297.564C336.661 296.231 338.575 295 341.086 295C345.155 295 348.457 298.419 348.5 302.591C348.594 311.965 341.065 318.847 332.001 324.999L332 325L331.999 324.999C322.934 318.847 315.406 311.965 315.5 302.591" fill="white"/>
<path d="M70 310C70 305.582 73.5817 302 78 302H132C136.418 302 140 305.582 140 310C140 314.418 136.418 318 132 318H78C73.5817 318 70 314.418 70 310Z" fill="#BFDBFE"/>
<path d="M156 310C156 305.582 159.582 302 164 302H254C258.418 302 262 305.582 262 310C262 314.418 258.418 318 254 318H164C159.582 318 156 314.418 156 310Z" fill="#BFDBFE"/>
<path d="M70 348C70 344.686 72.6863 342 76 342H160C163.314 342 166 344.686 166 348C166 351.314 163.314 354 160 354H76C72.6863 354 70 351.314 70 348Z" fill="white"/>
<path d="M70 376C70 372.686 72.6863 370 76 370H205C208.314 370 211 372.686 211 376C211 379.314 208.314 382 205 382H76C72.6863 382 70 379.314 70 376Z" fill="white"/>
<path d="M182 348C182 344.686 184.686 342 188 342H288C291.314 342 294 344.686 294 348C294 351.314 291.314 354 288 354H188C184.686 354 182 351.314 182 348Z" fill="white"/>
<path d="M70 78C70 66.9543 78.9543 58 90 58H336C347.046 58 356 66.9543 356 78V234C356 245.046 347.046 254 336 254H90C78.9543 254 70 245.046 70 234V78Z" fill="white"/>
<mask id="mask0_352_42139" style="mask-type:alpha" maskUnits="userSpaceOnUse" x="70" y="58" width="286" height="196">
<path d="M70 78C70 66.9543 78.9543 58 90 58H336C347.046 58 356 66.9543 356 78V234C356 245.046 347.046 254 336 254H90C78.9543 254 70 245.046 70 234V78Z" fill="white"/>
</mask>
<g mask="url(#mask0_352_42139)">
<path d="M70 58H246L70 226V58Z" fill="#BFDBFE"/>
<path d="M402 234C402 268.242 374.242 296 340 296C305.758 296 278 268.242 278 234C278 199.758 305.758 172 340 172C374.242 172 402 199.758 402 234Z" fill="#FACC15"/>
<path d="M340 181C340 215.794 311.794 244 277 244C242.206 244 214 215.794 214 181C214 146.206 242.206 118 277 118C311.794 118 340 146.206 340 181Z" fill="white"/>
<path fill-rule="evenodd" clip-rule="evenodd" d="M277 234C306.271 234 330 210.271 330 181C330 151.729 306.271 128 277 128C247.729 128 224 151.729 224 181C224 210.271 247.729 234 277 234ZM277 244C311.794 244 340 215.794 340 181C340 146.206 311.794 118 277 118C242.206 118 214 146.206 214 181C214 215.794 242.206 244 277 244Z" fill="#DBEAFE"/>
</g>
<mask id="path-23-inside-1_352_42139" fill="white">
<path d="M38 669H388V765H38V669Z"/>
</mask>
<path d="M38 672H388V666H38V672Z" fill="white" mask="url(#path-23-inside-1_352_42139)"/>
<path fill-rule="evenodd" clip-rule="evenodd" d="M86.5599 697.501C87.27 697.53 87.8628 698.052 87.9796 698.753L92.8857 728.19L97.0577 713.588C97.2384 712.956 97.8099 712.515 98.4674 712.5C99.1249 712.486 99.7151 712.902 99.923 713.526L102.581 721.5H107.5C108.328 721.5 109 722.172 109 723C109 723.828 108.328 724.5 107.5 724.5H101.5C100.854 724.5 100.281 724.087 100.077 723.474L98.6103 719.074L93.9423 735.412C93.7496 736.086 93.1154 736.537 92.4152 736.498C91.715 736.458 91.1357 735.938 91.0204 735.247L86.2061 706.36L81.9552 723.364C81.7883 724.032 81.1883 724.5 80.5 724.5H74.5C73.6716 724.5 73 723.828 73 723C73 722.172 73.6716 721.5 74.5 721.5H79.3288L85.0448 698.636C85.2172 697.947 85.8497 697.473 86.5599 697.501Z" fill="white"/>
<path fill-rule="evenodd" clip-rule="evenodd" d="M110.5 721.5C109.672 721.5 109 722.172 109 723C109 723.828 109.672 724.5 110.5 724.5C111.328 724.5 112 723.828 112 723C112 722.172 111.328 721.5 110.5 721.5ZM106 723C106 720.515 108.015 718.5 110.5 718.5C112.985 718.5 115 720.515 115 723C115 725.485 112.985 727.5 110.5 727.5C108.015 727.5 106 725.485 106 723Z" fill="white"/>
<path fill-rule="evenodd" clip-rule="evenodd" d="M200.712 700.235C203.38 698.452 206.518 697.5 209.727 697.5V699L209.727 697.5C214.031 697.5 218.158 699.21 221.201 702.253C224.244 705.296 225.954 709.423 225.954 713.727V713.727C225.954 716.937 225.003 720.074 223.22 722.743C221.437 725.411 218.902 727.491 215.937 728.719C212.972 729.947 209.709 730.269 206.561 729.643C203.414 729.016 200.522 727.471 198.253 725.202C195.983 722.932 194.438 720.041 193.812 716.893C193.186 713.745 193.507 710.482 194.735 707.517C195.963 704.552 198.043 702.018 200.712 700.235ZM209.727 700.5C213.235 700.5 216.599 701.894 219.08 704.374C221.56 706.855 222.954 710.219 222.954 713.727M209.727 700.5C207.111 700.5 204.554 701.276 202.379 702.729C200.203 704.183 198.508 706.248 197.507 708.665C196.506 711.082 196.244 713.742 196.754 716.308C197.265 718.874 198.524 721.23 200.374 723.08C202.224 724.93 204.581 726.19 207.147 726.7C209.713 727.211 212.372 726.949 214.789 725.948C217.206 724.946 219.272 723.251 220.725 721.076C222.179 718.901 222.954 716.343 222.954 713.727" fill="white"/>
<path fill-rule="evenodd" clip-rule="evenodd" d="M219.654 723.654C220.24 723.068 221.19 723.068 221.776 723.654L232.061 733.939C232.647 734.525 232.647 735.475 232.061 736.061C231.475 736.647 230.525 736.647 229.939 736.061L219.654 725.776C219.068 725.19 219.068 724.24 219.654 723.654Z" fill="white"/>
<path fill-rule="evenodd" clip-rule="evenodd" d="M314 708C314 707.172 314.672 706.5 315.5 706.5H348.5C349.328 706.5 350 707.172 350 708C350 708.828 349.328 709.5 348.5 709.5H315.5C314.672 709.5 314 708.828 314 708Z" fill="white"/>
<path fill-rule="evenodd" clip-rule="evenodd" d="M314 717C314 716.172 314.672 715.5 315.5 715.5H348.5C349.328 715.5 350 716.172 350 717C350 717.828 349.328 718.5 348.5 718.5H315.5C314.672 718.5 314 717.828 314 717Z" fill="white"/>
<path fill-rule="evenodd" clip-rule="evenodd" d="M314 726C314 725.172 314.672 724.5 315.5 724.5H348.5C349.328 724.5 350 725.172 350 726C350 726.828 349.328 727.5 348.5 727.5H315.5C314.672 727.5 314 726.828 314 726Z" fill="white"/>
</g>
</g>
<defs>
<filter id="filter0_dd_352_42139" x="0" y="0" width="426" height="828" filterUnits="userSpaceOnUse" color-interpolation-filters="sRGB">
<feFlood flood-opacity="0" result="BackgroundImageFix"/>
<feColorMatrix in="SourceAlpha" type="matrix" values="0 0 0 0 0 0 0 0 0 0 0 0 0 0 0 0 0 0 127 0" result="hardAlpha"/>
<feOffset/>
<feGaussianBlur stdDeviation="7.5"/>
<feComposite in2="hardAlpha" operator="out"/>
<feColorMatrix type="matrix" values="0 0 0 0 0 0 0 0 0 0 0 0 0 0 0 0 0 0 0.07 0"/>
<feBlend mode="normal" in2="BackgroundImageFix" result="effect1_dropShadow_352_42139"/>
<feColorMatrix in="SourceAlpha" type="matrix" values="0 0 0 0 0 0 0 0 0 0 0 0 0 0 0 0 0 0 127 0" result="hardAlpha"/>
<feMorphology radius="12" operator="erode" in="SourceAlpha" result="effect2_dropShadow_352_42139"/>
<feOffset dy="25"/>
<feGaussianBlur stdDeviation="25"/>
<feColorMatrix type="matrix" values="0 0 0 0 0 0 0 0 0 0 0 0 0 0 0 0 0 0 0.25 0"/>
<feBlend mode="normal" in2="effect1_dropShadow_352_42139" result="effect2_dropShadow_352_42139"/>
<feBlend mode="normal" in="SourceGraphic" in2="effect2_dropShadow_352_42139" result="shape"/>
</filter>
<clipPath id="clip0_352_42139">
<rect x="38" y="15" width="350" height="750" rx="50" fill="white"/>
</clipPath>
</defs>
</svg>
